<svg xmlns="http://www.w3.org/2000/svg" viewBox="0 0 260 260" width="260" height="260">
<defs>
<linearGradient id="g1" gradientUnits="userSpaceOnUse" gradientTransform="matrix(0.072 0 0 -0.072 -7.2964 84.3094)" x1="4223.8447" y1="-3357.1494" x2="4223.8447" y2="-2065.1494">
<stop offset="0%" style="stop-color:rgb(38,107,181)"/>
<stop offset="100%" style="stop-color:rgb(168,222,242)"/>
</linearGradient>
<linearGradient id="g2" gradientUnits="userSpaceOnUse" gradientTransform="matrix(0.072 0 0 -0.072 -7.2964 84.3094)" x1="5708.0166" y1="-5929.8096" x2="6826.0166" y2="-6575.8096">
<stop offset="0%" style="stop-color:rgb(38,107,181)"/>
<stop offset="100%" style="stop-color:rgb(168,222,242)"/>
</linearGradient>
<linearGradient id="g3" gradientUnits="userSpaceOnUse" gradientTransform="matrix(0.072 0 0 -0.072 -7.2964 84.3094)" x1="2774.8633" y1="-5960.6392" x2="1656.8634" y2="-6606.6392">
<stop offset="0%" style="stop-color:rgb(38,107,181)"/>
<stop offset="100%" style="stop-color:rgb(168,222,242)"/>
</linearGradient>
<linearGradient id="g4" gradientUnits="userSpaceOnUse" gradientTransform="matrix(0.072 0 0 -0.072 -7.2964 84.3094)" x1="6506.8291" y1="-3752.894" x2="5177.8291" y2="-4520.894">
<stop offset="0%" style="stop-color:rgb(38,107,181)"/>
<stop offset="100%" style="stop-color:rgb(168,222,242)"/>
</linearGradient>
<linearGradient id="g5" gradientUnits="userSpaceOnUse" gradientTransform="matrix(0.072 0 0 -0.072 -7.2964 84.3094)" x1="4232.3447" y1="-7693.1494" x2="4232.3447" y2="-6157.1494">
<stop offset="0%" style="stop-color:rgb(38,107,181)"/>
<stop offset="100%" style="stop-color:rgb(168,222,242)"/>
</linearGradient>
<linearGradient id="g6" gradientUnits="userSpaceOnUse" gradientTransform="matrix(0.072 0 0 -0.072 -7.2964 84.3094)" x1="1958.1123" y1="-3751.8105" x2="3288.1233" y2="-4519.8169">
<stop offset="0%" style="stop-color:rgb(38,107,181)"/>
<stop offset="100%" style="stop-color:rgb(168,222,242)"/>
</linearGradient>
</defs>
<g transform="translate(130,130)">
<g>
<g transform="matrix(0.46330791258560483 0 0 0.46330791258560483 -0.3002433947563077 -65.4721794159936)">
<path fill="url(#g1)" transform="translate(-296.81, -279.649)" d="M 345.876 286.633 L 345.876 271.801 C 345.876 245.162 324.062 223.419 297.494 223.419 C 270.855 223.419 249.112 245.234 249.112 271.801 L 249.112 286.633 L 240.4 311.04 L 249.112 335.879 C 263.943 329.543 280.359 326.015 297.494 326.015 C 314.701 326.015 331.045 329.543 345.876 335.879 L 353.22 305.568 L 345.876 286.633 z"/>
</g>
<g transform="matrix(0.46330791258560483 0 0 0.46330791258560483 63.88823611558087 48.168215427833616)">
<path fill="url(#g2)" transform="translate(-435.3538879127219, -524.929496526875)" d="M 413.914 572.247 L 426.802 579.663 C 449.841 592.982 479.648 584.991 492.968 561.951 C 506.287 538.912 498.295 509.105 475.256 495.786 L 462.368 488.37 L 445.881 468.139 L 419.674 463.747 C 417.73 479.803 412.618 495.714 404.051 510.617 C 395.483 525.52 384.251 537.904 371.291 547.624 L 385.835 568.432 L 413.986 572.247 L 413.914 572.247 z"/>
</g>
<g transform="matrix(0.46330791258560483 0 0 0.46330791258560483 -63.63783805622916 47.9180291550374)">
<path fill="url(#g3)" transform="translate(-160.1026549689132, -524.3894965268751)" d="M 132.547 488.37 L 119.66 495.786 C 96.62 509.105 88.629 538.841 101.949 561.951 C 115.268 584.991 145.003 592.982 168.115 579.663 L 181.003 572.247 L 224.706 568.791 L 223.698 547.624 C 210.739 537.904 199.507 525.52 190.939 510.617 C 182.371 495.714 177.188 479.803 175.315 463.747 L 152.42 462.667 L 132.62 488.37 L 132.547 488.37 z"/>
</g>
<g transform="matrix(0.46330791258560483 0 0 0.46330791258560483 50.46903766637428 -15.50349442781092)">
<path fill="url(#g4)" transform="translate(-406.39, -387.50100000000003)" d="M 419.602 463.747 L 462.297 488.37 C 465.32 475.77 466.904 462.595 466.904 449.059 C 466.904 372.309 415.858 307.44 345.876 286.632 L 345.876 335.879 L 345.876 374.542 C 368.987 389.589 384.611 415.076 386.195 444.308 L 419.674 463.675 L 419.602 463.747 z"/>
</g>
<g transform="matrix(0.46330791258560483 0 0 0.46330791258560483 -0.016698952253932475 70.60024964353227)">
<path fill="url(#g5)" transform="translate(-297.422, -573.3466152644141)" d="M 223.625 547.552 L 180.93 572.176 C 190.362 581.103 200.946 589.023 212.681 595.79 C 279.135 634.165 360.852 622.357 413.914 572.176 L 371.22 547.552 L 337.741 528.185 C 313.19 540.641 283.239 541.504 257.176 528.185 L 223.697 547.552 L 223.625 547.552 z"/>
</g>
<g transform="matrix(0.46330791258560483 0 0 0.46330791258560483 -50.453534655498856 -15.536620943560763)">
<path fill="url(#g6)" transform="translate(-188.55954733483898, -387.4295)" d="M 249.04 335.879 L 249.04 286.561 C 236.657 290.305 224.417 295.489 212.753 302.256 C 146.299 340.631 115.628 417.308 132.62 488.298 L 175.314 463.675 L 208.793 444.308 C 210.305 416.805 224.488 390.454 249.112 374.542 L 249.112 335.879 L 249.04 335.879 z"/>
</g>
</g>
</g>
</svg>